<svg width="126" height="24" viewBox="0 0 126 24" fill="none" xmlns="http://www.w3.org/2000/svg">
<rect x="57" width="69" height="24" rx="5" fill="white"/>
<path d="M7.72 5C8.96 5 10.0333 5.20667 10.94 5.62C11.86 6.03333 12.5667 6.62 13.06 7.38C13.5533 8.14 13.8 9.04 13.8 10.08C13.8 11.1067 13.5533 12.0067 13.06 12.78C12.5667 13.54 11.86 14.1267 10.94 14.54C10.0333 14.94 8.96 15.14 7.72 15.14H4.9V19H1.66V5H7.72ZM7.54 12.5C8.51333 12.5 9.25333 12.2933 9.76 11.88C10.2667 11.4533 10.52 10.8533 10.52 10.08C10.52 9.29333 10.2667 8.69333 9.76 8.28C9.25333 7.85333 8.51333 7.64 7.54 7.64H4.9V12.5H7.54ZM20.9936 19.16C19.8603 19.16 18.8403 18.9267 17.9336 18.46C17.0403 17.98 16.3403 17.32 15.8336 16.48C15.3269 15.64 15.0736 14.6867 15.0736 13.62C15.0736 12.5533 15.3269 11.6 15.8336 10.76C16.3403 9.92 17.0403 9.26667 17.9336 8.8C18.8403 8.32 19.8603 8.08 20.9936 8.08C22.1269 8.08 23.1403 8.32 24.0336 8.8C24.9269 9.26667 25.6269 9.92 26.1336 10.76C26.6403 11.6 26.8936 12.5533 26.8936 13.62C26.8936 14.6867 26.6403 15.64 26.1336 16.48C25.6269 17.32 24.9269 17.98 24.0336 18.46C23.1403 18.9267 22.1269 19.16 20.9936 19.16ZM20.9936 16.6C21.7936 16.6 22.4469 16.3333 22.9536 15.8C23.4736 15.2533 23.7336 14.5267 23.7336 13.62C23.7336 12.7133 23.4736 11.9933 22.9536 11.46C22.4469 10.9133 21.7936 10.64 20.9936 10.64C20.1936 10.64 19.5336 10.9133 19.0136 11.46C18.4936 11.9933 18.2336 12.7133 18.2336 13.62C18.2336 14.5267 18.4936 15.2533 19.0136 15.8C19.5336 16.3333 20.1936 16.6 20.9936 16.6ZM32.8391 19.16C31.6257 19.16 30.6791 18.84 29.9991 18.2C29.3191 17.5467 28.9791 16.6267 28.9791 15.44V4.16H32.0991V15.26C32.0991 15.7133 32.2124 16.0667 32.4391 16.32C32.6791 16.56 33.0124 16.68 33.4391 16.68C33.5991 16.68 33.7591 16.66 33.9191 16.62C34.0924 16.58 34.2257 16.5333 34.3191 16.48L34.4591 18.9C33.9391 19.0733 33.3991 19.16 32.8391 19.16ZM35.9908 8.24H39.1108V19H35.9908V8.24ZM37.5508 6.74C36.9774 6.74 36.5108 6.57333 36.1508 6.24C35.7908 5.90667 35.6108 5.49333 35.6108 5C35.6108 4.50667 35.7908 4.09333 36.1508 3.76C36.5108 3.42667 36.9774 3.26 37.5508 3.26C38.1241 3.26 38.5908 3.42 38.9508 3.74C39.3108 4.06 39.4908 4.46 39.4908 4.94C39.4908 5.46 39.3108 5.89333 38.9508 6.24C38.5908 6.57333 38.1241 6.74 37.5508 6.74ZM48.4864 18.48C48.1797 18.7067 47.7997 18.88 47.3464 19C46.9064 19.1067 46.4464 19.16 45.9664 19.16C44.6731 19.16 43.6797 18.8333 42.9864 18.18C42.2931 17.5267 41.9464 16.5667 41.9464 15.3V5.86H45.0664V8.48H47.7264V10.88H45.0664V15.26C45.0664 15.7133 45.1797 16.0667 45.4064 16.32C45.6331 16.56 45.9597 16.68 46.3864 16.68C46.8664 16.68 47.2931 16.5467 47.6664 16.28L48.4864 18.48ZM50.2486 8.24H53.3686V19H50.2486V8.24ZM51.8086 6.74C51.2353 6.74 50.7686 6.57333 50.4086 6.24C50.0486 5.90667 49.8686 5.49333 49.8686 5C49.8686 4.50667 50.0486 4.09333 50.4086 3.76C50.7686 3.42667 51.2353 3.26 51.8086 3.26C52.3819 3.26 52.8486 3.42 53.2086 3.74C53.5686 4.06 53.7486 4.46 53.7486 4.94C53.7486 5.46 53.5686 5.89333 53.2086 6.24C52.8486 6.57333 52.3819 6.74 51.8086 6.74Z" fill="white"/>
<path d="M76.5883 12C76.5883 13.2 76.3349 14.3 75.8283 15.3C75.3216 16.2867 74.6083 17.1133 73.6883 17.78C72.7816 18.4467 71.7349 18.8867 70.5483 19.1V21.7H67.2883V19.1C66.1149 18.8867 65.0683 18.4467 64.1483 17.78C63.2416 17.1133 62.5349 16.28 62.0283 15.28C61.5216 14.28 61.2683 13.1867 61.2683 12C61.2683 10.6267 61.5949 9.39333 62.2483 8.3C62.9149 7.19333 63.8283 6.32667 64.9883 5.7C66.1616 5.07333 67.4749 4.76 68.9283 4.76C70.3816 4.76 71.6883 5.07333 72.8483 5.7C74.0083 6.32667 74.9216 7.19333 75.5883 8.3C76.2549 9.39333 76.5883 10.6267 76.5883 12ZM70.4083 16.26C71.3016 15.98 72.0083 15.4667 72.5283 14.72C73.0483 13.96 73.3083 13.0533 73.3083 12C73.3083 11.1333 73.1149 10.36 72.7283 9.68C72.3549 9 71.8349 8.47333 71.1683 8.1C70.5016 7.71333 69.7549 7.52 68.9283 7.52C68.1016 7.52 67.3549 7.71333 66.6883 8.1C66.0216 8.47333 65.4949 9 65.1083 9.68C64.7349 10.36 64.5483 11.1333 64.5483 12C64.5483 13.0533 64.8016 13.9533 65.3083 14.7C65.8283 15.4467 66.5283 15.9667 67.4083 16.26V13.38H70.4083V16.26ZM89.6433 8.24V19H86.6833V17.72C86.2699 18.1867 85.7766 18.5467 85.2033 18.8C84.6299 19.04 84.0099 19.16 83.3433 19.16C81.9299 19.16 80.8099 18.7533 79.9833 17.94C79.1566 17.1267 78.7433 15.92 78.7433 14.32V8.24H81.8633V13.86C81.8633 15.5933 82.5899 16.46 84.0433 16.46C84.7899 16.46 85.3899 16.22 85.8433 15.74C86.2966 15.2467 86.5233 14.52 86.5233 13.56V8.24H89.6433ZM92.5338 8.24H95.6538V19H92.5338V8.24ZM94.0938 6.74C93.5204 6.74 93.0538 6.57333 92.6938 6.24C92.3338 5.90667 92.1538 5.49333 92.1538 5C92.1538 4.50667 92.3338 4.09333 92.6938 3.76C93.0538 3.42667 93.5204 3.26 94.0938 3.26C94.6671 3.26 95.1338 3.42 95.4938 3.74C95.8538 4.06 96.0338 4.46 96.0338 4.94C96.0338 5.46 95.8538 5.89333 95.4938 6.24C95.1338 6.57333 94.6671 6.74 94.0938 6.74ZM103.969 16.66C104.529 16.66 105.023 16.58 105.449 16.42C105.889 16.2467 106.296 15.98 106.669 15.62L108.329 17.42C107.316 18.58 105.836 19.16 103.889 19.16C102.676 19.16 101.603 18.9267 100.669 18.46C99.736 17.98 99.016 17.32 98.5094 16.48C98.0027 15.64 97.7494 14.6867 97.7494 13.62C97.7494 12.5667 97.996 11.62 98.4894 10.78C98.996 9.92667 99.6827 9.26667 100.549 8.8C101.429 8.32 102.416 8.08 103.509 8.08C104.536 8.08 105.469 8.3 106.309 8.74C107.149 9.16667 107.816 9.79333 108.309 10.62C108.816 11.4333 109.069 12.4 109.069 13.52L101.109 15.06C101.336 15.5933 101.689 15.9933 102.169 16.26C102.663 16.5267 103.263 16.66 103.969 16.66ZM103.509 10.44C102.723 10.44 102.083 10.6933 101.589 11.2C101.096 11.7067 100.836 12.4067 100.809 13.3L106.049 12.28C105.903 11.72 105.603 11.2733 105.149 10.94C104.696 10.6067 104.149 10.44 103.509 10.44ZM104.329 3.98H107.689L104.069 6.86H101.629L104.329 3.98ZM117.707 8.08C119.04 8.08 120.113 8.48 120.927 9.28C121.753 10.08 122.167 11.2667 122.167 12.84V19H119.047V13.32C119.047 12.4667 118.86 11.8333 118.487 11.42C118.113 10.9933 117.573 10.78 116.867 10.78C116.08 10.78 115.453 11.0267 114.987 11.52C114.52 12 114.287 12.72 114.287 13.68V19H111.167V8.24H114.147V9.5C114.56 9.04667 115.073 8.7 115.687 8.46C116.3 8.20667 116.973 8.08 117.707 8.08Z" fill="#FF2D55"/>
</svg>
